<svg xmlns="http://www.w3.org/2000/svg" id="svg1" width="2481" height="3507" viewBox="0 0 2481 3507"><g id="g1"><path id="path1" d="M608.447 1344.09c-112.414-40.174-160.991-152.306-111.656-257.734 23.959-51.198 73.002-89.07 131.22-101.33 16.274-3.427 119.244-5.062 318.715-5.062h294.673v108.885H944.09c-327.465 0-314.967-1.05-341.018 28.622-28.283 32.212-23.094 84.84 10.921 110.784 23.246 17.73 65.13 20.06 87.52 4.867 8.733-5.926 19.962-17.255 24.952-25.175l9.074-14.4 55.663-.176 55.663-.174-2.817 12.476c-12.102 53.582-54.376 105.624-105.07 129.346-38.886 18.197-94.231 22.043-130.53 9.07" style="fill:#d2bfb1;fill-opacity:1;stroke-width:4.53687"/><path id="path2" d="M964.65 823.442v-52.174h276.75v104.348H964.65Z" style="fill:#d2bfb1;fill-opacity:1;stroke-width:4.53687"/><path id="path3" d="m1212.212 2386.7-26.634-26.916 2.453-528.851 2.453-528.852h-116.949v945.796l-54.443-54.3-54.442-54.301v-946.08h276.75v610.21c0 335.614-.574 610.208-1.276 610.208s-13.262-12.111-27.91-26.915" style="fill:#d2bfb1;fill-opacity:1;stroke-width:4.53687"/><path id="path4" d="m988.2 2478.275-252.93-252.97V1447.26h113.42v750.814l197.478 197.516 197.477 197.515-1.258 69.07-1.257 69.069z" style="fill:#d2bfb1;fill-opacity:1;stroke-width:4.53687"/><path id="path5" d="M1240.65 823.442v-52.174h276.75v104.348h-276.75z" style="fill:#d2bfb1;fill-opacity:1;stroke-width:4.53687"/><path id="path6" d="M1874.515 1344.09c112.414-40.174 160.991-152.306 111.656-257.734-23.959-51.198-73.002-89.07-131.22-101.33-16.274-3.427-119.244-5.062-318.715-5.062h-294.673v108.885h297.31c327.465 0 314.967-1.05 341.018 28.622 28.283 32.212 23.094 84.84-10.921 110.784-23.245 17.73-65.13 20.06-87.52 4.867-8.733-5.926-19.962-17.255-24.952-25.175l-9.074-14.4-55.663-.176-55.663-.174 2.817 12.476c12.102 53.582 54.376 105.624 105.07 129.346 38.886 18.197 94.232 22.043 130.53 9.07" style="fill:#d2bfb1;fill-opacity:1;stroke-width:4.53687"/><path id="path7" d="m1267.837 2386.7 26.634-26.916-2.453-528.851-2.452-528.852h116.948v945.796l54.443-54.3 54.442-54.301v-946.08H1238.65v610.21c0 335.614.574 610.208 1.276 610.208s13.262-12.111 27.91-26.915" style="fill:#d2bfb1;fill-opacity:1;stroke-width:4.53687"/><path id="path8" d="m1494.716 2478.275 252.93-252.97V1447.26h-113.422v750.814l-197.477 197.516-197.477 197.515 1.257 69.07 1.258 69.069z" style="fill:#d2bfb1;fill-opacity:1;stroke-width:4.53687"/></g></svg>