<?xml version="1.0" encoding="UTF-8" standalone="no"?>
<!-- Created with Inkscape (http://www.inkscape.org/) -->

<svg
   version="1.1"
   id="svg1"
   width="2481"
   height="3507"
   viewBox="0 0 2481 3507"
   sodipodi:docname="logo-pink.svg"
   inkscape:version="1.4.3 (0d15f75, 2025-12-25)"
   xmlns:inkscape="http://www.inkscape.org/namespaces/inkscape"
   xmlns:sodipodi="http://sodipodi.sourceforge.net/DTD/sodipodi-0.dtd"
   xmlns="http://www.w3.org/2000/svg"
   xmlns:svg="http://www.w3.org/2000/svg">
  <defs
     id="defs1" />
  <sodipodi:namedview
     id="namedview1"
     pagecolor="#ffffff"
     bordercolor="#000000"
     borderopacity="0.25"
     inkscape:showpageshadow="2"
     inkscape:pageopacity="0.0"
     inkscape:pagecheckerboard="0"
     inkscape:deskcolor="#d1d1d1"
     showgrid="true"
     showguides="false"
     inkscape:zoom="0.31171574"
     inkscape:cx="768.32823"
     inkscape:cy="1358.6096"
     inkscape:window-width="1920"
     inkscape:window-height="991"
     inkscape:window-x="-9"
     inkscape:window-y="-9"
     inkscape:window-maximized="1"
     inkscape:current-layer="g1">
    <inkscape:grid
       id="grid4"
       units="px"
       originx="0"
       originy="0"
       spacingx="1"
       spacingy="1"
       empcolor="#0099e5"
       empopacity="0.30196078"
       color="#0099e5"
       opacity="0.14901961"
       empspacing="5"
       enabled="true"
       visible="true" />
  </sodipodi:namedview>
  <g
     inkscape:groupmode="layer"
     inkscape:label="Image"
     id="g1">
    <path
       style="fill:#d2bfb1;fill-opacity:1;stroke-width:4.53687"
       d="m 608.4466,1344.0898 c -112.4134,-40.1739 -160.9911,-152.3054 -111.6553,-257.7335 23.9583,-51.1978 73.0018,-89.06987 131.2195,-101.32966 16.2745,-3.42717 119.2441,-5.06286 318.7151,-5.06286 h 294.6732 v 54.44242 54.4424 H 944.0884 c -327.4647,0 -314.966,-1.049 -341.0178,28.6225 -28.2821,32.2115 -23.0938,84.8391 10.9218,110.784 23.2451,17.7299 65.1302,20.0593 87.5192,4.8673 8.7335,-5.9261 19.9623,-17.255 24.9528,-25.1755 l 9.0738,-14.4007 55.663,-0.1748 55.6631,-0.1748 -2.8177,12.4764 c -12.1011,53.5819 -54.3751,105.6236 -105.0692,129.3462 -38.886,18.197 -94.2319,22.0429 -130.5308,9.0706 z"
       id="path1" />
    <path
       style="fill:#d2bfb1;fill-opacity:1;stroke-width:4.53687"
       d="m 964.6501,823.44179 v -52.174 h 138.3745 138.3745 v 52.174 52.17399 H 1103.0246 964.6501 Z"
       id="path2" />
    <path
       style="fill:#d2bfb1;fill-opacity:1;stroke-width:4.53687"
       d="m 1212.2124,2386.6994 -26.6343,-26.9151 2.4528,-528.8514 2.4527,-528.8514 h -58.4743 -58.4744 v 472.8977 472.8977 l -54.4424,-54.3006 -54.4424,-54.3006 v -473.0395 -473.0396 h 138.3745 138.3745 v 610.209 c 0,335.6149 -0.5743,610.2089 -1.2762,610.2089 -0.702,0 -13.2617,-12.1118 -27.9105,-26.9151 z"
       id="path3" />
    <path
       style="fill:#d2bfb1;fill-opacity:1;stroke-width:4.53687"
       d="M 988.2002,2478.2745 735.2697,2225.3043 v -389.0215 -389.0215 h 56.7109 56.7109 v 375.4068 375.4068 l 197.4773,197.5157 197.4773,197.5156 -1.2577,69.0693 -1.2577,69.0693 z"
       id="path4" />
    <path
       style="fill:#d2bfb1;fill-opacity:1;stroke-width:4.53687"
       d="m 1240.6501,823.44179 v -52.174 h 138.3745 138.3745 v 52.174 52.17399 h -138.3745 -138.3745 z"
       id="path5" />
    <path
       style="fill:#d2bfb1;fill-opacity:1;stroke-width:4.53687"
       d="m 1874.5154,1344.0898 c 112.4134,-40.1739 160.9911,-152.3054 111.6553,-257.7335 -23.9583,-51.1978 -73.0018,-89.06987 -131.2195,-101.32966 -16.2745,-3.42717 -119.2441,-5.06286 -318.7151,-5.06286 h -294.6732 v 54.44242 54.4424 h 297.3107 c 327.4647,0 314.966,-1.049 341.0178,28.6225 28.2821,32.2115 23.0938,84.8391 -10.9218,110.784 -23.2451,17.7299 -65.1302,20.0593 -87.5192,4.8673 -8.7335,-5.9261 -19.9623,-17.255 -24.9528,-25.1755 l -9.0738,-14.4007 -55.663,-0.1748 -55.6631,-0.1748 2.8177,12.4764 c 12.1011,53.5819 54.3751,105.6236 105.0692,129.3462 38.886,18.197 94.2319,22.0429 130.5308,9.0706 z"
       id="path6" />
    <path
       style="fill:#d2bfb1;fill-opacity:1;stroke-width:4.53687"
       d="m 1267.8368,2386.6994 26.6343,-26.9151 -2.4528,-528.8514 -2.4527,-528.8514 h 58.4743 58.4744 v 472.8977 472.8977 l 54.4424,-54.3006 54.4424,-54.3006 v -473.0395 -473.0396 h -138.3745 -138.3745 v 610.209 c 0,335.6149 0.5743,610.2089 1.2762,610.2089 0.702,0 13.2617,-12.1118 27.9105,-26.9151 z"
       id="path7" />
    <path
       style="fill:#d2bfb1;fill-opacity:1;stroke-width:4.53687"
       d="m 1494.7156,2478.2745 252.9305,-252.9702 v -389.0215 -389.0215 h -56.7109 -56.7109 v 375.4068 375.4068 l -197.4773,197.5157 -197.4773,197.5156 1.2577,69.0693 1.2577,69.0693 z"
       id="path8" />
  </g>
</svg>
